<svg xmlns="http://www.w3.org/2000/svg" viewBox="0 0 128 128">
  <path d="M64 8c-2 0-3.5 1.5-3.5 3.5v10.2C48.8 23.8 39 29.5 33.2 38H28c-2 0-3.5 1.5-3.5 3.5S26 45 28 45h2.2c-1.5 4.2-2.4 8.8-2.6 13.5H20c-2 0-3.5 1.5-3.5 3.5s1.5 3.5 3.5 3.5h7.6c.2 4.7 1.1 9.3 2.6 13.5H28c-2 0-3.5 1.5-3.5 3.5s1.5 3.5 3.5 3.5h5.2c5.8 8.5 15.6 14.2 27.3 16.3v10.2c0 2 1.5 3.5 3.5 3.5s3.5-1.5 3.5-3.5v-10.2c11.7-2.1 21.5-7.8 27.3-16.3H100c2 0 3.5-1.5 3.5-3.5s-1.5-3.5-3.5-3.5h-2.2c1.5-4.2 2.4-8.8 2.6-13.5H108c2 0 3.5-1.5 3.5-3.5s-1.5-3.5-3.5-3.5h-7.6c-.2-4.7-1.1-9.3-2.6-13.5H100c2 0 3.5-1.5 3.5-3.5S102 38 100 38h-5.2C89 29.5 79.2 23.8 67.5 21.7V11.5C67.5 9.5 66 8 64 8zM50 45h28c2 0 3.5 1.5 3.5 3.5v7c0 6.2-2 12-5.5 16.5-3.8 5-9.3 8-15.5 8h-1c-6.2 0-11.7-3-15.5-8-3.5-4.5-5.5-10.3-5.5-16.5v-7c0-2 1.5-3.5 3.5-3.5z"/>
  <style>path{fill:#4a7ab5}@media(prefers-color-scheme:dark){path{fill:#7fb3e0}}</style>
</svg>
